<svg width="120" height="26" viewBox="0 0 120 26" fill="none" xmlns="http://www.w3.org/2000/svg">
<path d="M10.5625 7.21503V8.58815H25.9858C25.9642 8.14534 25.9179 7.58553 25.7522 7.21503" fill="#EC1C24"/>
<path d="M25.025 5.84186H10.5625V7.21498H25.7522C25.5872 6.7027 25.3419 6.23551 25.025 5.84186Z" fill="#E6E7E8"/>
<path d="M21.9375 4.46875H10.5625V5.84188H25.025C24.347 4.99281 23.231 4.46875 21.9375 4.46875Z" fill="#EC1C24"/>
<path d="M25.9858 8.58813H10.5625V9.96126H26V9.04598C26 8.96432 25.9947 8.8847 25.9923 8.80467C25.9907 8.78273 25.9882 8.72626 25.9858 8.58813Z" fill="#E6E7E8"/>
<path d="M10.5625 11.3344H26V9.96124H10.5625V11.3344Z" fill="#EC1C24"/>
<path d="M10.5625 12.7075H26V11.3344H10.5625V12.7075Z" fill="#E6E7E8"/>
<path d="M10.5625 12.7075H26V14.0806H10.5625V12.7075Z" fill="#EC1C24"/>
<path d="M0 14.0806V15.4538H26V14.0806H10.5625H0Z" fill="#E6E7E8"/>
<path d="M0 15.4537H26V16.8269H0V15.4537Z" fill="#EC1C24"/>
<path d="M0.00203125 17.6715C0.00203125 17.6715 -0.001625 18.0042 0.008125 18.2H25.9919C26.0033 17.9993 25.998 17.6715 25.998 17.6715L26 16.8269H0L0.00203125 17.6715Z" fill="#E6E7E8"/>
<path d="M4.0625 22.3437H21.9375C23.2347 22.3437 24.3128 21.8725 25.0494 20.9462H0.946564C1.70706 21.8928 2.80556 22.3437 4.06047 22.3437" fill="#EC1C24"/>
<path d="M0.948601 20.9462H25.0514C25.3727 20.538 25.6127 20.0718 25.7583 19.5731H0.245789C0.394109 20.0704 0.633072 20.5359 0.950632 20.9462" fill="#E6E7E8"/>
<path d="M0.243743 19.5731H25.7562C25.8893 19.1265 25.9684 18.6655 25.9919 18.2H0.00811768C0.0483364 18.6696 0.0857114 19.0243 0.243743 19.5731Z" fill="#EC1C24"/>
<path d="M10.5625 4.46875H4.0625C1.37028 4.46875 0 6.46953 0 8.9375V14.0806H10.5625V4.46875Z" fill="#176496"/>
<path d="M1.13668 6.8965L1.35768 6.72669L1.57828 6.8965L1.49256 6.6235L1.71234 6.45653H1.44096L1.35687 6.18231L1.27318 6.45653H1.00221L1.22281 6.6235L1.13668 6.8965ZM2.59674 6.8965L2.81774 6.72669L3.03834 6.8965L2.95303 6.6235L3.1724 6.45653H2.90143L2.81734 6.18231L2.73365 6.45653H2.46187L2.68246 6.6235L2.59674 6.8965ZM4.20753 6.8965L4.42812 6.72669L4.64912 6.8965L4.5634 6.6235L4.78278 6.45653H4.51343L4.42812 6.18231L4.34403 6.45653H4.07468L4.29284 6.6235L4.20753 6.8965ZM5.80653 6.8965L6.02712 6.72669L6.24812 6.8965L6.16281 6.6235L6.38218 6.45653H6.10999L6.02712 6.18231L5.94343 6.45653H5.67206L5.89224 6.6235L5.80653 6.8965ZM7.41121 6.8965L7.63221 6.72669L7.85281 6.8965L7.7675 6.6235L7.98728 6.45653H7.7155L7.63181 6.18231L7.54812 6.45653H7.27715L7.49653 6.6235L7.41121 6.8965ZM1.91384 7.60947L2.13443 7.44006L2.35503 7.60947L2.27012 7.33687L2.48949 7.16991H2.21812L2.13403 6.89609L2.05156 7.16991H1.77937L1.99915 7.33687L1.91384 7.60947ZM3.37431 7.60947L3.5949 7.44006L3.8155 7.60947L3.73018 7.33687L3.94956 7.16991H3.67656L3.5949 6.89609L3.51081 7.16991H3.23984L3.45962 7.33687L3.37431 7.60947ZM4.98509 7.60947L5.20528 7.44006L5.42587 7.60947L5.34056 7.33687L5.56034 7.16991H5.28937L5.20528 6.89609L5.12118 7.16991H4.84981L5.06959 7.33687L4.98509 7.60947ZM6.58328 7.60947L6.80428 7.44006L7.02528 7.60947L6.93875 7.33687L7.15893 7.16991H6.88796L6.80387 6.89609L6.72059 7.16991H6.44921L6.669 7.33687L6.58328 7.60947ZM8.18999 7.60947L8.40896 7.44006L8.62956 7.60947L8.54343 7.33687L8.76362 7.16991H8.49306L8.40856 6.89609L8.32528 7.16991H8.0539L8.27368 7.33687L8.18999 7.60947ZM9.09471 6.8965L9.31531 6.72669L9.53631 6.8965L9.45059 6.6235L9.66996 6.45653H9.40062L9.3149 6.18231L9.23121 6.45653H8.95781L9.18003 6.6235L9.09471 6.8965ZM1.11515 12.6019L1.33615 12.4341L1.55674 12.6019L1.47143 12.3313L1.69081 12.1639L1.41984 12.1647L1.33534 11.8909L1.25246 12.1647L0.980682 12.1639L1.20046 12.3313L1.11515 12.6019ZM2.57562 12.6019L2.79621 12.4341L3.01721 12.6019L2.93149 12.3313L3.15087 12.1639L2.88031 12.1647L2.79581 11.8909L2.71253 12.1647L2.44156 12.1639L2.66093 12.3313L2.57562 12.6019ZM4.1864 12.6019L4.40699 12.4341L4.628 12.6019L4.54228 12.3313L4.76165 12.1639L4.48906 12.1647L4.40659 11.8909L4.3229 12.1647L4.05193 12.1639L4.27171 12.3313L4.1864 12.6019ZM5.7854 12.6019L6.006 12.4341L6.22659 12.6019L6.14249 12.3313L6.36065 12.1639L6.08928 12.1647L6.00559 11.8909L5.9219 12.1647L5.65093 12.1639L5.87031 12.3313L5.7854 12.6019ZM7.38968 12.6019L7.61068 12.4341L7.83168 12.6019L7.74718 12.3313L7.96534 12.1639L7.69437 12.1647L7.61028 11.8909L7.527 12.1647L7.25562 12.1639L7.47499 12.3313L7.38968 12.6019ZM9.07318 12.6019L9.29378 12.4341L9.51478 12.6019L9.42906 12.3313L9.64884 12.1639L9.37625 12.1647L9.29337 11.8909L9.20968 12.1647L8.9375 12.1639L9.15849 12.3313L9.07318 12.6019ZM1.13668 8.32325L1.35768 8.15344L1.57828 8.32325L1.49256 8.05025L1.71234 7.88328L1.44096 7.88409L1.35687 7.60947L1.27318 7.88409L1.00221 7.88328L1.22281 8.05025L1.13668 8.32325ZM2.59674 8.32325L2.81774 8.15344L3.03834 8.32325L2.95303 8.05025L3.1724 7.88328L2.90143 7.88409L2.81734 7.60947L2.73365 7.88409L2.46187 7.88328L2.68246 8.05025L2.59674 8.32325ZM4.20753 8.32325L4.42812 8.15344L4.64912 8.32325L4.5634 8.05025L4.78278 7.88328L4.51343 7.88409L4.42812 7.60947L4.34403 7.88409L4.07468 7.88328L4.29284 8.05025L4.20753 8.32325ZM5.80653 8.32325L6.02712 8.15344L6.24812 8.32325L6.16281 8.05025L6.38218 7.88328L6.10999 7.88409L6.02712 7.60947L5.94343 7.88409L5.67206 7.88328L5.89224 8.05025L5.80653 8.32325ZM7.41121 8.32325L7.63221 8.15344L7.85281 8.32325L7.7675 8.05025L7.98728 7.88328L7.7155 7.88409L7.63181 7.60947L7.54812 7.88409L7.27715 7.88328L7.49653 8.05025L7.41121 8.32325ZM1.91384 9.03662L2.13443 8.86722L2.35503 9.03662L2.27012 8.76403L2.48949 8.59625H2.21812L2.13403 8.32325L2.05156 8.59625H1.77937L1.99915 8.76403L1.91384 9.03662ZM3.37431 9.03662L3.5949 8.86722L3.8155 9.03662L3.73018 8.76403L3.94956 8.59625H3.67656L3.5949 8.32325L3.51081 8.59625H3.23984L3.45962 8.76403L3.37431 9.03662ZM4.98509 9.03662L5.20528 8.86722L5.42587 9.03662L5.34056 8.76403L5.56034 8.59625H5.28937L5.20528 8.32325L5.12118 8.59625H4.84981L5.06959 8.76403L4.98509 9.03662ZM6.58328 9.03662L6.80428 8.86722L7.02528 9.03662L6.93875 8.76403L7.15893 8.59625H6.88796L6.80387 8.32325L6.72059 8.59625H6.44921L6.669 8.76403L6.58328 9.03662ZM8.18999 9.03662L8.40896 8.86722L8.62956 9.03662L8.54343 8.76403L8.76362 8.59625H8.49306L8.40856 8.32325L8.32528 8.59625H8.0539L8.27368 8.76403L8.18999 9.03662ZM9.09471 8.32325L9.31531 8.15344L9.53631 8.32325L9.45059 8.05025L9.66996 7.88328L9.40062 7.88409L9.3149 7.60947L9.23121 7.88409L8.95781 7.88328L9.18003 8.05025L9.09471 8.32325ZM1.11515 9.75L1.33615 9.58059L1.55674 9.75L1.47103 9.47781L1.69081 9.31044L1.41943 9.31125L1.33534 9.03662L1.25246 9.31125L0.980682 9.31044L1.20046 9.47781L1.11515 9.75ZM2.57562 9.75L2.79621 9.58059L3.01721 9.75L2.93149 9.47781L3.15087 9.31044L2.88031 9.31125L2.79581 9.03662L2.71253 9.31125L2.44156 9.31044L2.66053 9.47781L2.57562 9.75ZM4.1864 9.75L4.40699 9.58059L4.62759 9.75L4.54228 9.47781L4.76165 9.31044L4.48906 9.31125L4.40659 9.03662L4.3229 9.31125L4.05193 9.31044L4.27171 9.47781L4.1864 9.75ZM5.7854 9.75L6.00559 9.58059L6.22659 9.75L6.14249 9.47781L6.36065 9.31044L6.08928 9.31125L6.00559 9.03662L5.9219 9.31125L5.65093 9.31044L5.87031 9.47781L5.7854 9.75ZM7.38968 9.75L7.61068 9.58059L7.83128 9.75L7.74718 9.47781L7.96534 9.31044L7.69396 9.31125L7.61028 9.03662L7.527 9.31125L7.25562 9.31044L7.47499 9.47781L7.38968 9.75ZM1.89231 10.4634L2.1129 10.2944L2.33349 10.4634L2.24859 10.1928L2.46756 10.0246H2.19618L2.11249 9.75L2.02921 10.0246H1.75784L1.97762 10.1928L1.89231 10.4634ZM3.35278 10.4634L3.57337 10.2944L3.79396 10.4634L3.70865 10.1928L3.92803 10.0246H3.65624L3.57296 9.75L3.48928 10.0246H3.2179L3.43809 10.1928L3.35278 10.4634ZM4.96396 10.4634L5.18375 10.2944L5.40474 10.4634L5.31781 10.1928L5.53881 10.0246H5.26784L5.18375 9.75L5.10006 10.0246H4.82868L5.04846 10.1928L4.96396 10.4634ZM6.56093 10.4634L6.78274 10.2944L7.00375 10.4634L6.91843 10.1928L7.1374 10.0246H6.86643L6.78234 9.75L6.69906 10.0246H6.42768L6.64746 10.1928L6.56093 10.4634ZM8.16562 10.4634L8.38743 10.2944L8.60843 10.4634L8.52271 10.1928L8.7429 10.0246H8.47193L8.38743 9.75L8.30375 10.0246H8.03237L8.25215 10.1928L8.16562 10.4634ZM9.07318 9.75L9.29378 9.58059L9.51437 9.75L9.42906 9.47781L9.64884 9.31044L9.37625 9.31125L9.29337 9.03662L9.20968 9.31125L8.9375 9.31044L9.15849 9.47781L9.07318 9.75ZM1.11515 11.1772L1.33615 11.0094L1.55674 11.1772L1.47103 10.9046L1.69081 10.7372L1.41943 10.738L1.33534 10.4634L1.25246 10.738L0.980682 10.7372L1.20046 10.9046L1.11515 11.1772ZM2.57562 11.1772L2.79621 11.0094L3.01721 11.1772L2.93149 10.9046L3.15087 10.7372L2.88031 10.738L2.79581 10.4634L2.71253 10.738L2.44156 10.7372L2.66053 10.9046L2.57562 11.1772ZM4.1864 11.1772L4.40699 11.0094L4.62759 11.1772L4.54228 10.9046L4.76165 10.7372L4.48906 10.738L4.40659 10.4634L4.3229 10.738L4.05193 10.7372L4.27171 10.9046L4.1864 11.1772ZM5.7854 11.1772L6.00559 11.0094L6.22659 11.1772L6.14249 10.9046L6.36065 10.7372L6.08928 10.738L6.00559 10.4634L5.9219 10.738L5.65093 10.7372L5.87031 10.9046L5.7854 11.1772ZM7.38968 11.1772L7.61068 11.0094L7.83128 11.1772L7.74718 10.9046L7.96534 10.7372L7.69396 10.738L7.61028 10.4634L7.527 10.738L7.25562 10.7372L7.47499 10.9046L7.38968 11.1772ZM1.89231 11.8909L2.1129 11.7211L2.33349 11.8909L2.24859 11.6179L2.46756 11.4522H2.19618L2.11249 11.1772L2.02921 11.4522H1.75784L1.97762 11.6179L1.89231 11.8909ZM3.35278 11.8909L3.57337 11.7211L3.79396 11.8909L3.70865 11.6179L3.92803 11.4522H3.65624L3.57296 11.1772L3.48928 11.4522H3.2179L3.43809 11.6179L3.35278 11.8909ZM4.96396 11.8909L5.18375 11.7211L5.40474 11.8909L5.31781 11.6179L5.53881 11.4522H5.26784L5.18375 11.1772L5.10006 11.4522H4.82868L5.04846 11.6179L4.96396 11.8909ZM6.56093 11.8909L6.78274 11.7211L7.00375 11.8909L6.91843 11.6179L7.1374 11.4522H6.86643L6.78234 11.1772L6.69906 11.4522H6.42768L6.64746 11.6179L6.56093 11.8909ZM8.16562 11.8909L8.38743 11.7211L8.60843 11.8909L8.52271 11.6179L8.7429 11.4522H8.47193L8.38743 11.1772L8.30375 11.4522H8.03237L8.25215 11.6179L8.16562 11.8909ZM9.07318 11.1772L9.29378 11.0094L9.51437 11.1772L9.42906 10.9046L9.64884 10.7372L9.37625 10.738L9.29337 10.4634L9.20968 10.738L8.9375 10.7372L9.15849 10.9046L9.07318 11.1772Z" fill="white"/>
<path d="M49.24 12.034H55.9V13.168H49.24V12.034ZM49.384 17.848H56.962V19H48.052V6.4H56.692V7.552H49.384V17.848ZM64.647 9.46C65.415 9.46 66.087 9.61 66.663 9.91C67.251 10.198 67.707 10.642 68.031 11.242C68.367 11.842 68.535 12.598 68.535 13.51V19H67.257V13.636C67.257 12.64 67.005 11.89 66.501 11.386C66.009 10.87 65.313 10.612 64.413 10.612C63.741 10.612 63.153 10.75 62.649 11.026C62.157 11.29 61.773 11.68 61.497 12.196C61.233 12.7 61.101 13.312 61.101 14.032V19H59.823V9.55H61.047V12.142L60.849 11.656C61.149 10.972 61.629 10.438 62.289 10.054C62.949 9.658 63.735 9.46 64.647 9.46ZM76.0191 22.582C75.1551 22.582 74.3271 22.456 73.5351 22.204C72.7431 21.952 72.1011 21.592 71.6091 21.124L72.2571 20.152C72.7011 20.548 73.2471 20.86 73.8951 21.088C74.5551 21.328 75.2511 21.448 75.9831 21.448C77.1831 21.448 78.0651 21.166 78.6291 20.602C79.1931 20.05 79.4751 19.186 79.4751 18.01V15.652L79.6551 14.032L79.5291 12.412V9.55H80.7531V17.848C80.7531 19.48 80.3511 20.674 79.5471 21.43C78.7551 22.198 77.5791 22.582 76.0191 22.582ZM75.7851 18.64C74.8851 18.64 74.0751 18.448 73.3551 18.064C72.6351 17.668 72.0651 17.122 71.6451 16.426C71.2371 15.73 71.0331 14.932 71.0331 14.032C71.0331 13.132 71.2371 12.34 71.6451 11.656C72.0651 10.96 72.6351 10.42 73.3551 10.036C74.0751 9.652 74.8851 9.46 75.7851 9.46C76.6251 9.46 77.3811 9.634 78.0531 9.982C78.7251 10.33 79.2591 10.846 79.6551 11.53C80.0511 12.214 80.2491 13.048 80.2491 14.032C80.2491 15.016 80.0511 15.85 79.6551 16.534C79.2591 17.218 78.7251 17.74 78.0531 18.1C77.3811 18.46 76.6251 18.64 75.7851 18.64ZM75.9111 17.506C76.6071 17.506 77.2251 17.362 77.7651 17.074C78.3051 16.774 78.7311 16.366 79.0431 15.85C79.3551 15.322 79.5111 14.716 79.5111 14.032C79.5111 13.348 79.3551 12.748 79.0431 12.232C78.7311 11.716 78.3051 11.314 77.7651 11.026C77.2251 10.726 76.6071 10.576 75.9111 10.576C75.2271 10.576 74.6091 10.726 74.0571 11.026C73.5171 11.314 73.0911 11.716 72.7791 12.232C72.4791 12.748 72.3291 13.348 72.3291 14.032C72.3291 14.716 72.4791 15.322 72.7791 15.85C73.0911 16.366 73.5171 16.774 74.0571 17.074C74.6091 17.362 75.2271 17.506 75.9111 17.506ZM84.3093 19V5.644H85.5873V19H84.3093ZM89.1433 19V9.55H90.4213V19H89.1433ZM89.7913 7.462C89.5273 7.462 89.3053 7.372 89.1253 7.192C88.9453 7.012 88.8553 6.796 88.8553 6.544C88.8553 6.292 88.9453 6.082 89.1253 5.914C89.3053 5.734 89.5273 5.644 89.7913 5.644C90.0553 5.644 90.2773 5.728 90.4573 5.896C90.6373 6.064 90.7273 6.274 90.7273 6.526C90.7273 6.79 90.6373 7.012 90.4573 7.192C90.2893 7.372 90.0673 7.462 89.7913 7.462ZM96.5153 19.09C95.7353 19.09 94.9973 18.982 94.3013 18.766C93.6053 18.538 93.0593 18.256 92.6633 17.92L93.2393 16.912C93.6233 17.2 94.1153 17.452 94.7153 17.668C95.3153 17.872 95.9453 17.974 96.6053 17.974C97.5053 17.974 98.1533 17.836 98.5493 17.56C98.9453 17.272 99.1433 16.894 99.1433 16.426C99.1433 16.078 99.0293 15.808 98.8013 15.616C98.5853 15.412 98.2973 15.262 97.9373 15.166C97.5773 15.058 97.1753 14.968 96.7313 14.896C96.2873 14.824 95.8433 14.74 95.3993 14.644C94.9673 14.548 94.5713 14.41 94.2113 14.23C93.8513 14.038 93.5573 13.78 93.3293 13.456C93.1133 13.132 93.0053 12.7 93.0053 12.16C93.0053 11.644 93.1493 11.182 93.4373 10.774C93.7253 10.366 94.1453 10.048 94.6973 9.82C95.2613 9.58 95.9453 9.46 96.7493 9.46C97.3613 9.46 97.9733 9.544 98.5853 9.712C99.1973 9.868 99.7013 10.078 100.097 10.342L99.5393 11.368C99.1193 11.08 98.6693 10.876 98.1893 10.756C97.7093 10.624 97.2293 10.558 96.7493 10.558C95.8973 10.558 95.2673 10.708 94.8593 11.008C94.4633 11.296 94.2653 11.668 94.2653 12.124C94.2653 12.484 94.3733 12.766 94.5893 12.97C94.8173 13.174 95.1113 13.336 95.4713 13.456C95.8433 13.564 96.2453 13.654 96.6773 13.726C97.1213 13.798 97.5593 13.888 97.9913 13.996C98.4353 14.092 98.8373 14.23 99.1973 14.41C99.5693 14.578 99.8633 14.824 100.079 15.148C100.307 15.46 100.421 15.874 100.421 16.39C100.421 16.942 100.265 17.422 99.9533 17.83C99.6533 18.226 99.2093 18.538 98.6213 18.766C98.0453 18.982 97.3433 19.09 96.5153 19.09ZM107.59 9.46C108.358 9.46 109.03 9.61 109.606 9.91C110.194 10.198 110.65 10.642 110.974 11.242C111.31 11.842 111.478 12.598 111.478 13.51V19H110.2V13.636C110.2 12.64 109.948 11.89 109.444 11.386C108.952 10.87 108.256 10.612 107.356 10.612C106.684 10.612 106.096 10.75 105.592 11.026C105.1 11.29 104.716 11.68 104.44 12.196C104.176 12.7 104.044 13.312 104.044 14.032V19H102.766V5.644H104.044V12.142L103.792 11.656C104.092 10.972 104.572 10.438 105.232 10.054C105.892 9.658 106.678 9.46 107.59 9.46Z" fill="#BDBDBD"/>
</svg>
